<?xml version="1.0"?>
<svg xmlns="http://www.w3.org/2000/svg" xmlns:xlink="http://www.w3.org/1999/xlink" xmlns:svgjs="http://svgjs.com/svgjs" version="1.1" width="512" height="512" x="0" y="0" viewBox="0 0 473 473" style="enable-background:new 0 0 512 512" xml:space="preserve" class=""><g>
<g xmlns="http://www.w3.org/2000/svg">
	<path d="M467.69,229.327l-139.294-42.536l36.446-68.488c1.55-2.912,1.015-6.494-1.317-8.826c-2.334-2.333-5.917-2.867-8.827-1.318   l-68.488,36.446L243.673,5.31C242.71,2.155,239.799,0,236.5,0s-6.21,2.155-7.173,5.31L186.79,144.604l-68.487-36.445   c-2.911-1.549-6.494-1.015-8.827,1.318c-2.332,2.332-2.867,5.915-1.317,8.826l36.446,68.488L5.31,229.327   C2.155,230.29,0,233.202,0,236.5s2.155,6.21,5.31,7.173l139.294,42.536l-36.446,68.488c-1.55,2.912-1.015,6.494,1.317,8.826   c1.442,1.442,3.362,2.197,5.306,2.197c1.2,0,2.41-0.288,3.521-0.879l68.487-36.445l42.537,139.294   c0.963,3.155,3.874,5.31,7.173,5.31s6.21-2.155,7.173-5.31l42.536-139.295l68.488,36.446c1.111,0.592,2.321,0.879,3.521,0.879   c1.943,0,3.863-0.755,5.306-2.197c2.332-2.332,2.867-5.915,1.317-8.826l-36.446-68.488l139.294-42.536   c3.154-0.963,5.31-3.875,5.31-7.173S470.845,230.29,467.69,229.327z M236.5,303.809c-37.114,0-67.309-30.195-67.309-67.309   c0-37.114,30.194-67.309,67.309-67.309s67.309,30.195,67.309,67.309C303.809,273.614,273.614,303.809,236.5,303.809z M244,154.548   V57.74l32.66,106.952C266.834,159.175,255.774,155.617,244,154.548z M229,154.548c-11.774,1.069-22.835,4.627-32.661,10.145   L229,57.74V154.548z M154.548,229H57.74l106.952-32.66C159.175,206.165,155.617,217.226,154.548,229z M154.548,244   c1.069,11.774,4.627,22.834,10.144,32.66L57.74,244H154.548z M229,318.452v96.808l-32.661-106.953   C206.165,313.825,217.226,317.383,229,318.452z M244,318.452c11.774-1.069,22.834-4.627,32.659-10.144L244,415.26V318.452z    M318.452,244h96.808l-106.952,32.66C313.825,266.834,317.383,255.774,318.452,244z M318.452,229   c-1.069-11.774-4.627-22.834-10.144-32.66L415.26,229H318.452z M340.062,132.938l-26.282,49.389l-17.701-5.405l-5.406-17.701   L340.062,132.938z M132.938,132.938l49.388,26.282l-5.406,17.702l-17.7,5.405L132.938,132.938z M132.938,340.062l26.282-49.389   l17.7,5.405l5.406,17.702L132.938,340.062z M340.062,340.062l-49.389-26.282l5.406-17.701l17.701-5.405L340.062,340.062z" fill="#ffffff" data-original="#000000" style="" class=""/>
	<path d="M236.697,186.645c-0.115,0-0.231,0-0.343,0c-12.834,0-24.9,4.985-33.994,14.047c-9.135,9.103-14.165,21.218-14.165,34.114   v24.001c0,4.142,3.357,7.5,7.5,7.5c5.518,0,10.007,4.489,10.007,10.007v2.541c0,4.142,3.357,7.5,7.5,7.5h46.596   c4.143,0,7.5-3.358,7.5-7.5v-2.541c0-5.518,4.489-10.007,10.007-10.007c4.143,0,7.5-3.358,7.5-7.5v-24.001   c0-12.896-5.03-25.011-14.165-34.114C261.545,191.629,249.48,186.645,236.697,186.645z M269.805,252.456   c-8.597,2.708-15.204,9.945-17.013,18.899h-32.584c-1.809-8.955-8.416-16.191-17.013-18.899v-17.65   c0-8.879,3.464-17.221,9.754-23.489c6.262-6.24,14.568-9.672,23.458-9.672c0.077,0,0.158,0,0.237,0   c8.837,0,17.146,3.432,23.406,9.672c6.29,6.268,9.754,14.61,9.754,23.489V252.456z" fill="#ffffff" data-original="#000000" style="" class=""/>
	<path d="M226.923,235.999c-2.566-6.063-11.493-6.042-13.904,0.142c-1.188,3.048-0.218,6.635,2.374,8.645   c2.331,1.807,5.576,2.076,8.17,0.676C226.886,243.668,228.394,239.493,226.923,235.999   C226.732,235.549,227.112,236.449,226.923,235.999z" fill="#ffffff" data-original="#000000" style="" class=""/>
	<path d="M259.232,234.709c-1.678-2.551-4.901-3.843-7.878-3.158c-3.243,0.746-5.687,3.612-5.842,6.95   c-0.311,6.722,8.045,10.412,12.791,5.668C260.792,241.68,261.214,237.638,259.232,234.709   C258.963,234.299,259.503,235.109,259.232,234.709z" fill="#ffffff" data-original="#000000" style="" class=""/>
	<path d="M243.423,250.279c-2.569-6.073-11.517-6.036-13.917,0.173c-2.513,6.501,4.8,12.652,10.782,9.167   C243.485,257.757,244.829,253.694,243.423,250.279C243.232,249.829,243.612,250.739,243.423,250.279z" fill="#ffffff" data-original="#000000" style="" class=""/>
</g>
<g xmlns="http://www.w3.org/2000/svg">
</g>
<g xmlns="http://www.w3.org/2000/svg">
</g>
<g xmlns="http://www.w3.org/2000/svg">
</g>
<g xmlns="http://www.w3.org/2000/svg">
</g>
<g xmlns="http://www.w3.org/2000/svg">
</g>
<g xmlns="http://www.w3.org/2000/svg">
</g>
<g xmlns="http://www.w3.org/2000/svg">
</g>
<g xmlns="http://www.w3.org/2000/svg">
</g>
<g xmlns="http://www.w3.org/2000/svg">
</g>
<g xmlns="http://www.w3.org/2000/svg">
</g>
<g xmlns="http://www.w3.org/2000/svg">
</g>
<g xmlns="http://www.w3.org/2000/svg">
</g>
<g xmlns="http://www.w3.org/2000/svg">
</g>
<g xmlns="http://www.w3.org/2000/svg">
</g>
<g xmlns="http://www.w3.org/2000/svg">
</g>
</g></svg>
